<svg xmlns="http://www.w3.org/2000/svg" xmlns:xlink="http://www.w3.org/1999/xlink" width="62" height="70" xmlns:v="https://vecta.io/nano"><defs><filter x="-7.3%" y="-6.7%" width="114.5%" height="113.4%" id="A"><feOffset in="SourceAlpha"/><feGaussianBlur stdDeviation="1.5"/><feComposite in2="SourceAlpha" operator="out"/><feColorMatrix values="0 0 0 0 0 0 0 0 0 0.254901961 0 0 0 0 0.560784314 0 0 0 0.100688374 0"/></filter><path d="M9.935 0h42.13c3.455 0 4.707.36 5.97 1.035a7.042 7.042 0 0 1 2.93 2.93C61.64 5.228 62 6.48 62 9.935V57.22c0 3.455-.36 4.707-1.035 5.97a7.042 7.042 0 0 1-2.93 2.93c-1.263.675-2.515 1.035-5.97 1.035H9.935c-3.455 0-4.707-.36-5.97-1.035a7.042 7.042 0 0 1-2.93-2.93C.36 61.927 0 60.675 0 57.22V9.935c0-3.455.36-4.707 1.035-5.97a7.042 7.042 0 0 1 2.93-2.93C5.228.36 6.48 0 9.935 0z" id="B"/></defs><g fill-rule="evenodd"><path d="M46.898 15.764c3.363 0 4.588.339 5.818.997a6.724 6.724 0 0 1 2.797 2.797c.659 1.23.997 2.455.997 5.818v34.689c0 3.363-.338 4.587-.997 5.818a6.724 6.724 0 0 1-2.797 2.797c-1.23.658-2.455.997-5.818.997H15.102c-3.363 0-4.588-.339-5.818-.997a6.724 6.724 0 0 1-2.797-2.797c-.659-1.23-.997-2.455-.997-5.818V25.376c0-3.363.338-4.587.997-5.818a6.724 6.724 0 0 1 2.797-2.797c1.23-.658 2.455-.997 5.818-.997z" stroke="#e2e8f1" stroke-width=".646" fill="#fff"/><mask id="C" fill="#fff"><use xlink:href="#B"/></mask><use fill="#000" filter="url(#A)" xlink:href="#B"/><path stroke="#e2e8f1" stroke-width=".646" d="M52.065.323c3.363 0 4.587.339 5.818.997a6.724 6.724 0 0 1 2.797 2.797c.658 1.23.997 2.455.997 5.818V57.22c0 3.363-.339 4.587-.997 5.818a6.724 6.724 0 0 1-2.797 2.797c-1.23.658-2.455.997-5.818.997H9.935c-3.363 0-4.587-.339-5.818-.997a6.724 6.724 0 0 1-2.797-2.797c-.658-1.23-.997-2.455-.997-5.818V9.935c0-3.363.339-4.587.997-5.818A6.724 6.724 0 0 1 4.117 1.32C5.347.662 6.572.323 9.935.323z" stroke-linejoin="square" fill="#fff"/><path fill="#54b5c6" mask="url(#C)" d="M0 0h62v3.874H0z"/></g></svg>