<svg width="19" height="12" xmlns="http://www.w3.org/2000/svg" xmlns:xlink="http://www.w3.org/1999/xlink"><defs><path id="prefix__a" d="M0 0h6.23v11.626H0z"/><path id="prefix__c" d="M0 0h6.062v10.542H0z"/></defs><g fill="none" fill-rule="evenodd"><mask id="prefix__b" fill="#fff"><use xlink:href="#prefix__a"/></mask><path d="M5.928 5.128c.4.378.404.989 0 1.37L.725 11.415c-.4.378-.725.237-.725-.324V.536C0-.021.321-.17.725.212l5.203 4.915v.002z" fill="#E03F19" mask="url(#prefix__b)"/><path d="M6.21 10.795a.791.791 0 010-1.119l3.92-3.919L6.21 1.84A.792.792 0 017.33.72l4.48 4.48a.79.79 0 010 1.118l-4.48 4.477a.789.789 0 01-1.12 0" fill="#E03F19"/><g transform="translate(11.98 .487)"><mask id="prefix__d" fill="#fff"><use xlink:href="#prefix__c"/></mask><path d="M.232 10.309a.791.791 0 010-1.12l3.92-3.918-3.92-3.918a.792.792 0 011.12-1.12L5.83 4.712a.79.79 0 010 1.119l-4.478 4.478a.789.789 0 01-1.12 0" fill="#E03F19" mask="url(#prefix__d)"/></g></g></svg>